<svg width="64" height="64" viewBox="0 0 64 64" fill="none" xmlns="http://www.w3.org/2000/svg">
  <defs>
    <linearGradient id="butterflyGradient" x1="0%" y1="0%" x2="100%" y2="100%">
      <stop offset="0%" style="stop-color:#8B5CF6;stop-opacity:1" />
      <stop offset="50%" style="stop-color:#EC4899;stop-opacity:1" />
      <stop offset="100%" style="stop-color:#F59E0B;stop-opacity:1" />
    </linearGradient>
  </defs>
  
  <!-- Butterfly wings -->
  <path d="M32 20C28 16 20 18 18 26C16 34 22 36 26 32C26 32 28 34 32 34C36 34 38 32 38 32C42 36 48 34 46 26C44 18 36 16 32 20Z" fill="url(#butterflyGradient)" opacity="0.9"/>
  <path d="M32 34C28 38 20 36 18 28C16 20 22 18 26 22C26 22 28 20 32 20C36 20 38 22 38 22C42 18 48 20 46 28C44 36 36 38 32 34Z" fill="url(#butterflyGradient)" opacity="0.7"/>
  
  <!-- Butterfly body -->
  <rect x="30" y="18" width="4" height="28" rx="2" fill="white" opacity="0.8"/>
  
  <!-- Antennae -->
  <circle cx="30" cy="16" r="1.5" fill="white" opacity="0.6"/>
  <circle cx="34" cy="16" r="1.5" fill="white" opacity="0.6"/>
  <line x1="30" y1="16" x2="28" y2="12" stroke="white" stroke-width="1" opacity="0.6"/>
  <line x1="34" y1="16" x2="36" y2="12" stroke="white" stroke-width="1" opacity="0.6"/>
  
  <!-- Decorative spots -->
  <circle cx="24" cy="24" r="2" fill="white" opacity="0.3"/>
  <circle cx="40" cy="24" r="2" fill="white" opacity="0.3"/>
  <circle cx="26" cy="38" r="1.5" fill="white" opacity="0.4"/>
  <circle cx="38" cy="38" r="1.5" fill="white" opacity="0.4"/>
</svg>